<svg id="Layer_1" data-name="Layer 1" xmlns="http://www.w3.org/2000/svg" viewBox="0 0 464.65 724.94">
  <defs>
    <style>
      .cls-1 {
        fill: #e2e2e2;
      }

      .cls-2 {
        fill: #cecece;
      }

      .cls-3 {
        fill: #d1d1d1;
        stroke: #a5804a;
      }

      .cls-4 {
        fill: #f4d9bf;
        opacity: 0.84;
      }

      .cls-5 {
        fill: none;
        stroke: #b59971;
      }
    </style>
  </defs>
  <g>
    <path class="cls-1" d="M1073.91,818.23c-43.87,13.24-48.87,16-55.55,30.75a35.59,35.59,0,0,0-28.46,1.35c-9.08,4.26-16.13,10.92-22.46,18.77-13.54-15.71-28.61-27.23-51.35-20.22-2.89-10.06-10.94-15.47-19.93-19.13-11.34-4.62-23.13-8.13-35.89-12.52.89-11.06.87-23.37,3.08-35.27,3-16.17,8.33-31.89,11.56-48,6.37-31.9,11.51-64,11.75-96.67.23-30.26,5.72-59.73,14.29-88.84.49.12,1.1.09,1.33.36,11.22,13.1,25.46,15.63,41.17,10.59,7.18-2.3,13.9-6.21,20.58-9.84,2.52-1.36,4-1.32,6.61-.07,8.62,4.14,17.23,8.85,26.39,11.2,14.23,3.64,26.53-1.27,37-13.59,3.34,15.21,6.8,29.27,9.48,43.48,3.6,19,4,38.33,4.57,57.67.59,18.24,4,36.4,6,54.6,2.48,21.92,9.1,42.86,14.73,64.07C1073.27,783.52,1073.8,800.79,1073.91,818.23Z" transform="translate(-733.47 -144.16)"/>
    <path class="cls-2" d="M813.56,835.54l-5.41-7.18-1.35.6c.44,9.11.87,18.22,1.31,27.4-6.23-1.24-6.35-1.42-14.09-20.88-.19,6.29-4.2,3.51-7.32,3.89-1.63-7.36-3.32-14.46-4.72-21.61-.55-2.8-1.2-5.12-4.43-5.79-3.76-.78-4.26-2.83-3.36-6.53,10.71-44.28,21.67-88.52,31.6-133,4.67-20.91,7.09-42.31,10.86-63.43,6.59-36.84,13.28-73.68,25.09-109.31,2.65-8,6.53-15.61,10.34-23.16,1.61-3.19,4.28-6.15,9.06-4.33,2.44-10.76,8.38-19.05,17-25.66s16.81-13.63,25.47-20.11A76.53,76.53,0,0,1,917,418.69c5.9-2.78,6.88-2.06,9.37,3.9a34.32,34.32,0,0,0,16.58,18c15,7.51,30.17,7.47,45.11-.11,7.85-4,13.85-10.21,16.47-18.61,1.63-5.23,4.52-5.46,8.13-3.63,5.76,2.92,11.59,6,16.69,9.87,10.3,7.9,20.69,15.83,29.92,24.89,5,4.9,7.71,12.13,10.92,17.45,2.92,1.91,6.29,3,7.71,5.27a99.24,99.24,0,0,1,8.89,17.76C1097,521.18,1103,550,1108.43,579c5.55,29.58,9.66,59.44,15.52,89,4.88,24.61,11.37,48.9,17.18,73.33,5.41,22.8,10.87,45.58,16.47,69-9.12.61-8.95,7.79-10.23,14-.8,3.91-1.93,7.77-2.53,11.7-.41,2.71-1.59,4-4.22,3.42a26.73,26.73,0,0,1-4.77-2.16c-1.74,7-3.27,15.57-13.28,19.91.46-9.81.9-19,1.38-29.08-2.56,2.39-4.51,4.23-7,6.57-1.23-2.59-2.42-4.84-3.39-7.18a265.18,265.18,0,0,1-19.47-78.17c-3.9-44.09-14.83-86.82-23-130.1-3.84-20.42-8.07-40.78-12.45-61.1-1.14-5.29,1.79-9,3.75-13,1.54-3.18,1.57-5.61-.32-8.7-13.17-21.54-29.75-39.62-52-52q-44.67-24.93-89.41,0C897.94,497,881,515.47,868.07,537.75a7.16,7.16,0,0,0,0,6.23c4.44,6.82,4.13,13.7,2.54,21.36C860.49,614,850.48,662.73,841,711.55c-2.49,12.85-2.68,26.13-4.43,39.14-3.57,26.62-9.35,52.72-19.78,77.61C816,830.27,815.06,832.21,813.56,835.54Z" transform="translate(-733.47 -144.16)"/>
    <path class="cls-2" d="M801.15,365.28c4.06,10.88,7.52,20.91,11.54,30.71,3.31,8.08,7.07,16,11,23.79,5.5,10.92,6.55,22.6,6.39,34.47-.33,24.19-6.27,47.36-12.82,70.45-21.61,76.11-43,152.3-64.69,228.37-2.52,8.81-6.82,17.1-10.29,25.64L741,778.5c-1.35-11.45-3.3-22.86-3.94-34.34q-2.28-40.83-3.48-81.72c-.74-25.25,6.19-49.32,12.23-73.54q27.18-109.12,53.88-218.37C800,369.12,800.44,367.74,801.15,365.28Z" transform="translate(-733.47 -144.16)"/>
    <path class="cls-2" d="M1130.29,366.39c4,15.94,7.6,30.59,11.2,45.25,15.81,64.25,30.79,128.72,47.71,192.67,9.25,35,9.79,70,7.88,105.45-1.27,23.37-4,46.66-6.1,70l-1.25.21c-.53-.84-1.13-1.64-1.59-2.51-11.52-21.93-15.24-46.32-22-69.74q-27.65-95.82-54.92-191.75c-6.2-21.82-10.76-44-9.85-66.85.48-12.09,2.5-23.59,10.28-33.74,3.19-4.17,4.15-10.07,6.07-15.2C1121.78,389.31,1125.8,378.45,1130.29,366.39Z" transform="translate(-733.47 -144.16)"/>
    <path d="M1137.33,219.43c-23.49-5.39-46.5-11.5-69.84-15.87-56.07-10.49-112.54-11.75-169.18-4.92-31.94,3.85-63.42,9.86-94,20.18-3.65,1.24-6.42-.71-6.07-4.64.27-3.06.94-6.53,2.66-8.94,8.21-11.47,16.78-22.68,25.38-33.87.91-1.19,2.74-1.83,4.27-2.38,70.89-25.41,143.22-32.1,217.23-16.44,11.2,2.37,22.76,3.82,33.45,7.67,26.5,9.54,44.94,27.83,54.65,54.5C1136.52,216.4,1136.94,218.14,1137.33,219.43Z" transform="translate(-733.47 -144.16)"/>
    <path d="M736.93,526.3c0-13.56.15-27.12,0-40.68q-1.1-85.08-2.43-170.17a23.25,23.25,0,0,1,3.34-13.19c12.24-19.79,24.27-39.72,36.53-59.5,5.4-8.72,12.76-15.14,22.81-18.31,14.38-4.54,28.57-9.69,43-13.94,7.88-2.31,12.49-.94,15.85,2.37-1.69,1.48-3.84,2.67-5,4.48C829.45,250.75,807.7,284,786.78,317.82c-3.82,6.18-5.21,14.39-5.91,21.84-1.6,16.86-3.57,33.91-2.66,50.73,1.66,31.05-4.87,60.21-16.67,88.41-6.34,15.15-14,29.73-21.16,44.56a34.48,34.48,0,0,1-2,3.15Z" transform="translate(-733.47 -144.16)"/>
    <path d="M1076.05,212.06c2.65-.73,5.64-2.47,8.35-2.12,8.19,1.07,16.53,2.16,24.34,4.69a281.23,281.23,0,0,1,34.74,13.69c5,2.38,9.43,7,12.54,11.69,11.23,16.88,21.56,34.35,32.66,51.32,7.07,10.79,9.73,22,9.42,35.09-1.56,64.86-2.14,129.75-3.07,194.63,0,1.65,0,3.3,0,5l-1.52,1.14a5.94,5.94,0,0,0-.34-2c-17-30.54-31.47-62.14-36.76-96.94-2.16-14.18-1.54-28.83-1.66-43.27-.16-19.5-.94-38.92-5.22-58a33.47,33.47,0,0,0-4.32-10.47q-31.38-49.21-63.11-98.23C1080.75,216.1,1078.55,214.55,1076.05,212.06Z" transform="translate(-733.47 -144.16)"/>
    <path class="cls-3" d="M1011.19,410.07c-6.31.54-10.86,1.19-14.73-4.09-2.06-2.8-6.71-4.29-10.46-5.15a85.59,85.59,0,0,0-37.15-.12,25.24,25.24,0,0,0-13.52,7.79c-2.05,2.17-6.74,1.84-11.57,2.94.54-6,.45-10.82,1.48-15.37,5.45-24.14,11.18-48.21,16.82-72.3,1.21-5.17,2.21-10.41,3.73-15.49,2.24-7.48,6.14-14,12.63-18.66,6.77-4.88,10.86-4.89,17.66-.12,7.17,5,11.3,12.24,13.34,20.47q9.69,39.18,18.78,78.5C1009.79,395.36,1010.18,402.53,1011.19,410.07Z" transform="translate(-733.47 -144.16)"/>
    <path d="M1084.71,269.65c-9.2,9-19.33,14.86-31.81,16-2,.17-4.69,1.39-5.56-2.28-.16-.63-3-.86-4.55-.88-14.3-.22-28.6-.34-42.9-.5-7.25-.09-10.21-4-8.32-11.24,1.84-7.08,6.46-12.4,12-16.69,6.25-4.82,13.06-8,21.63-6.78,10.52,1.45,21.18,2,31.8,2.52,9.91.49,17.44,4.7,22.84,12.92C1081.31,264.89,1082.87,267,1084.71,269.65Z" transform="translate(-733.47 -144.16)"/>
    <path class="cls-4" d="M119.37,94.84h74a18.9,18.9,0,0,1,18.9,18.9v17.12a18.9,18.9,0,0,1-18.9,18.9H136.49a36,36,0,0,1-36-36v0a18.9,18.9,0,0,1,18.9-18.9Z"/>
    <path class="cls-5" d="M833.94,266.47s-48.74,23.72-66.63-12.32" transform="translate(-733.47 -144.16)"/>
  </g>
  <path class="cls-5" d="M945.7,257.91s49-14.76,81.73-109.11" transform="translate(-733.47 -144.16)"/>
</svg>
